<svg width="41" height="35" viewBox="0 0 41 35" fill="none" xmlns="http://www.w3.org/2000/svg">
<g id="Duo-emoji">
<g id="Group">
<path id="Vector" d="M38.9132 27.7772C38.2143 27.4897 37.4489 27.2741 36.6501 27.0945C35.452 26.807 34.1541 26.6273 32.8562 26.5195L32.8229 26.5554V26.232C34.1541 25.8008 35.4187 25.0103 36.4504 23.8963C37.3823 22.8901 38.1477 21.5965 38.6469 20.0154C38.7801 19.9795 38.8799 19.8717 38.9798 19.7639C39.9116 18.7577 40.4108 15.4877 40.1113 15.0205C40.2444 14.1222 40.7103 10.0257 39.4457 6.36037C39.4124 6.2885 39.3791 6.1807 39.3458 6.10883C39.2793 5.92916 39.2127 5.78542 39.1462 5.60575C38.9798 5.21047 38.7801 4.8152 38.5804 4.41992C38.5471 4.34805 38.4805 4.27618 38.4473 4.16838C38.2476 3.8809 38.0479 3.55749 37.8482 3.30595C37.7484 3.16222 37.6153 3.01848 37.5154 2.87474C36.0211 1.18942 33.7614 0.00359343 30.3768 0C26.9955 0.00359343 25.398 1.18942 23.9037 2.87474C23.8039 3.01848 23.6708 3.16222 23.5709 3.30595C23.3712 3.55749 23.1716 3.8809 22.9719 4.16838C22.9386 4.27618 22.872 4.34805 22.8388 4.41992C22.6391 4.8152 22.4394 5.21047 22.273 5.60575C22.2064 5.78542 22.1399 5.92916 22.0733 6.10883C22.04 6.1807 22.0067 6.2885 21.9735 6.36037C20.7088 10.0257 21.1747 14.1222 21.3079 15.0205C21.0083 15.4877 21.5075 18.7577 22.4394 19.7639C22.5392 19.8717 22.6391 19.9795 22.7722 20.0154C23.2714 21.5965 24.0368 22.8901 24.9687 23.8963C26.0004 25.0103 26.5994 25.8008 27.9307 26.232V26.5554C25.0685 26.8034 22.3695 27.4861 20.3161 28.6001C19.4075 29.0924 18.6254 29.6674 18.0131 30.3285C17.1145 31.2988 16.582 32.4487 16.582 33.8142V35H23.8239H40.484V28.4995C39.9915 28.2336 39.4656 27.9928 38.9132 27.7772Z" fill="#1798F3"/>
</g>
<path id="Vector_2" d="M20.3119 28.6001C19.7727 28.2947 19.187 28.018 18.5613 27.7772C17.8624 27.4897 17.097 27.2741 16.2983 27.0945C15.1002 26.807 13.8022 26.6273 12.5043 26.5195L12.471 26.5554V26.232C13.8022 25.8008 15.0669 25.0103 16.0986 23.8963C17.0304 22.8901 17.7959 21.5965 18.2951 20.0154C18.4282 19.9795 18.528 19.8717 18.6279 19.7639C19.5597 18.7577 20.0589 15.4877 19.7594 15.0205C19.8925 14.1222 20.3585 10.0257 19.0938 6.36037C19.0605 6.2885 19.0272 6.1807 18.994 6.10883C18.9274 5.92916 18.8608 5.78542 18.7943 5.60575C18.6279 5.21047 18.4282 4.8152 18.2285 4.41992C18.1952 4.34805 18.1287 4.27618 18.0954 4.16838C17.8957 3.8809 17.696 3.55749 17.4963 3.30595C17.3965 3.16222 17.2634 3.01848 17.1635 2.87474C15.6693 1.18942 13.4095 0.00359343 10.0249 0C6.6436 0.00359343 5.04614 1.18942 3.55185 2.87474C3.45201 3.01848 3.31889 3.16222 3.21905 3.30595C3.01937 3.55749 2.81968 3.8809 2.62 4.16838C2.58672 4.27618 2.52016 4.34805 2.48688 4.41992C2.2872 4.8152 2.08751 5.21047 1.92111 5.60575C1.85455 5.78542 1.78799 5.92916 1.72143 6.10883C1.68815 6.1807 1.65487 6.2885 1.62159 6.36037C0.356933 10.0257 0.822859 14.1222 0.95598 15.0205C0.656457 15.4877 1.15566 18.7577 2.08751 19.7639C2.18736 19.8717 2.2872 19.9795 2.42032 20.0154C2.91952 21.5965 3.68497 22.8901 4.61683 23.8963C5.64852 25.0103 6.24757 25.8008 7.57878 26.232V26.5554C4.95296 26.7854 2.46026 27.3783 0.483398 28.3342V35H16.5778H23.8196V33.8142C23.823 31.4964 22.4252 29.7967 20.3119 28.6001Z" fill="#1976D2"/>
</g>
</svg>
