<svg width="40" height="35" viewBox="0 0 40 35" fill="none" xmlns="http://www.w3.org/2000/svg">
<g id="hand-emoji">
<path id="Vector" d="M9.401 27.4724C9.06763 27.4121 8.80093 27.3517 8.46756 27.231C8.13419 27.1103 7.8675 27.0499 7.6008 26.9292C7.00074 26.6877 6.46735 26.3859 5.93396 26.0237C4.86718 25.3596 4.00042 24.4541 3.33369 23.3675C2.66695 22.3413 2.26691 21.134 2.20023 19.987C2.13356 19.3834 2.20023 18.8401 2.26691 18.2364C2.33358 17.9346 2.40025 17.6931 2.46693 17.3913C2.5336 17.0895 2.66695 16.848 2.73362 16.5462L2.8003 17.3913C2.8003 17.6931 2.86697 17.9346 2.93364 18.2364C3.00032 18.7797 3.13367 19.323 3.26701 19.8059C3.53371 20.8322 3.93375 21.798 4.53381 22.7035C5.13388 23.609 5.80061 24.4541 6.66737 25.2389C7.06741 25.6011 7.53413 25.9633 8.00085 26.3255C8.20087 26.5066 8.46756 26.6877 8.73426 26.8688L9.401 27.4724ZM9.20097 29.6456C9.00095 29.7664 8.73426 29.8267 8.46756 29.8871C8.20087 29.9475 8.00085 30.0078 7.73415 30.0078C7.26744 30.0682 6.73405 30.1286 6.20066 30.0682C5.20055 30.0078 4.13377 29.7664 3.26701 29.3438C2.33358 28.9212 1.5335 28.2572 1.00011 27.4724C0.733411 27.1103 0.466716 26.6877 0.266695 26.2651C0.200021 26.084 0.133347 25.8426 0.0666737 25.6011C0.0666737 25.42 0 25.2389 0 24.9974C0.200021 25.1785 0.333369 25.3596 0.466716 25.4804C0.666737 25.6615 0.800085 25.8426 0.933432 25.9633C1.2668 26.2651 1.5335 26.567 1.86686 26.8084C2.5336 27.3517 3.20034 27.8346 4.00042 28.1968C4.73383 28.559 5.60059 28.8609 6.40068 29.1023C6.80072 29.2231 7.26744 29.2834 7.73415 29.4042C7.93417 29.4645 8.20087 29.4645 8.40089 29.5249C8.73426 29.5853 8.93428 29.5853 9.20097 29.6456ZM24.2692 0.307642C24.6026 0.368009 24.8693 0.488741 25.2027 0.609474C25.536 0.730206 25.8027 0.850938 26.0694 0.971671C26.6695 1.2735 27.2029 1.57533 27.7363 1.93753C28.803 2.66193 29.6698 3.62779 30.2699 4.71438C30.8699 5.80097 31.2033 7.00829 31.2033 8.15525C31.2033 8.75892 31.1366 9.30221 31.0033 9.90587C30.9366 10.2077 30.8699 10.4492 30.7366 10.751C30.6032 11.0528 30.5366 11.2943 30.4032 11.5358L30.3365 10.6906C30.3365 10.3888 30.3365 10.1473 30.2699 9.84551L30.0698 8.21562C29.8698 7.18939 29.4698 6.16317 28.9364 5.19731C28.403 4.23145 27.7363 3.38632 26.9362 2.60156C26.5361 2.179 26.0694 1.8168 25.6694 1.39423C25.4694 1.21314 25.2027 1.03204 24.936 0.850939L24.2692 0.307642ZM30.0698 0.0661774C30.3365 0.126544 30.5366 0.18691 30.7366 0.307642C30.9366 0.368009 31.2033 0.488741 31.4033 0.609474C31.8034 0.850939 32.2034 1.0924 32.6035 1.39423C33.3369 1.9979 33.9369 2.72229 34.2703 3.56742C34.6703 4.41255 34.8037 5.31804 34.6703 6.22353C34.6037 6.6461 34.4703 7.06866 34.337 7.49122C34.2703 7.67232 34.1369 7.91379 34.0703 8.09489C33.9369 8.27599 33.8703 8.45708 33.6702 8.63818V8.03452V7.43086C33.6702 7.0083 33.6036 6.6461 33.6036 6.2839C33.4702 5.49914 33.3369 4.77474 33.0035 4.11072C32.6701 3.38632 32.2701 2.78266 31.8034 2.11863C31.5367 1.8168 31.27 1.4546 31.0033 1.15277C30.8699 0.971671 30.7366 0.850938 30.5366 0.66984C30.4032 0.368009 30.2032 0.18691 30.0698 0.0661774Z" fill="#42ADE2"/>
<path id="Vector_2" d="M5.33487 9.06068C4.00139 9.60398 3.53468 11.0528 4.13474 12.2601L12.5356 28.1364L17.2028 26.1443L8.8019 10.2076C8.20184 9.00031 6.66834 8.45702 5.33487 9.06068ZM27.4039 21.6772L32.3377 19.5644L22.7367 1.45453C22.07 0.247209 20.4698 -0.296087 19.0697 0.307575C17.7362 0.911238 17.1361 2.36003 17.8029 3.62772L27.4039 21.6772Z" fill="#FFDD67"/>
<path id="Vector_3" d="M19.1334 0.24661C19.0001 0.306976 18.8667 0.367342 18.7334 0.488075C20.0002 0.186244 21.3337 0.72954 21.9337 1.81613L31.5348 19.926L32.4015 19.5638L22.8005 1.45393C22.1338 0.186244 20.5336 -0.357052 19.1334 0.24661Z" fill="#EBA352"/>
<path id="Vector_4" d="M17.2004 26.0825L22.3342 23.849L12.5332 5.37693C11.8665 4.10924 10.133 3.50557 8.73281 4.10924C7.33266 4.7129 6.73259 6.28242 7.39933 7.55011L17.2004 26.0825Z" fill="#FFDD67"/>
<path id="Vector_5" d="M8.73793 4.17041C8.60459 4.23078 8.47124 4.29114 8.33789 4.41187C9.60469 4.11004 11.0715 4.65334 11.6716 5.8003L17.7389 17.3303L19.2057 18.115L12.5383 5.4381C11.8716 4.11004 10.2048 3.56675 8.73793 4.17041Z" fill="#EBA352"/>
<path id="Vector_6" d="M21.5344 22.4006L26.6682 20.167L16.8672 1.69498C16.2005 0.427293 14.4669 -0.17637 13.0668 0.487659C11.6666 1.09132 11.0666 2.66084 11.7333 3.92853L21.5344 22.4006Z" fill="#FFDD67"/>
<path id="Vector_7" d="M13.0697 0.427726C12.9364 0.488092 12.803 0.608825 12.6697 0.669191C13.9365 0.36736 15.4033 0.910656 16.0034 2.05761L22.8708 15.0967L24.3376 15.8815L16.8701 1.69542C16.2034 0.36736 14.4699 -0.175936 13.0697 0.427726ZM5.33559 9.0601C5.20224 9.12046 5.06889 9.18083 4.93555 9.30156C6.13567 8.99973 7.40248 9.54303 7.93587 10.6296L12.9364 20.1071L14.4032 20.8919L8.80262 10.2674C8.20256 8.99973 6.66906 8.45644 5.33559 9.0601Z" fill="#EBA352"/>
<path id="Vector_8" d="M39.204 7.2491C37.4038 5.98141 34.4701 7.36983 33.0033 11.7162C32.0032 14.7345 31.8699 15.64 29.7363 16.5455L28.5362 14.312C28.5362 14.312 9.60083 22.5821 10.3342 23.9102C10.3342 23.9102 12.6012 30.309 16.4682 33.2669C22.2022 37.734 35.6036 32.9651 36.2037 21.4352C36.537 14.7345 41.1375 8.63753 39.204 7.2491Z" fill="#FFDD67"/>
<g id="Group">
<path id="Vector_9" d="M39.2051 7.2484C38.8717 7.00693 38.4717 6.8862 38.0716 6.82584C38.1383 6.8862 38.2717 6.8862 38.3383 6.94657C40.3385 8.33499 38.2717 11.5344 37.1382 14.432C36.2048 16.7259 35.4047 19.0802 35.538 21.3741C36.0714 31.3949 24.9369 36.1638 18.2695 34.3528C24.8036 36.8279 36.9382 32.1193 36.4048 21.6759C36.2714 19.382 37.0049 17.1485 38.005 14.7338C39.0717 11.8362 41.1386 8.63682 39.2051 7.2484Z" fill="#EBA352"/>
<path id="Vector_10" d="M30.3354 16.3039C26.2016 16.7264 20.1343 22.099 24.4015 27.9545C21.2678 22.0387 26.4017 18.0545 29.6687 16.6661C30.0021 16.4246 30.3354 16.3039 30.3354 16.3039Z" fill="#EBA352"/>
</g>
</g>
</svg>
