<svg width="40" height="31" viewBox="0 0 40 31" fill="none" xmlns="http://www.w3.org/2000/svg">
<path id="mail-emoji" d="M38.5714 0.5H1.42857C0.638393 0.5 0 1.10937 0 1.86364V29.1364C0 29.8906 0.638393 30.5 1.42857 30.5H38.5714C39.3616 30.5 40 29.8906 40 29.1364V1.86364C40 1.10937 39.3616 0.5 38.5714 0.5ZM36.7857 5.22159V27.4318H3.21429V5.22159L1.98214 4.3054L3.73661 2.15341L5.64732 3.57244H34.3571L36.2679 2.15341L38.0223 4.3054L36.7857 5.22159ZM34.3571 3.56818L20 14.2216L5.64286 3.56818L3.73214 2.14915L1.97768 4.30114L3.20982 5.21733L18.4598 16.5355C18.8984 16.8607 19.4379 17.0373 19.9933 17.0373C20.5487 17.0373 21.0882 16.8607 21.5268 16.5355L36.7857 5.22159L38.0179 4.3054L36.2634 2.15341L34.3571 3.56818Z" fill="black"/>
</svg>
