<svg width="42" height="41" viewBox="0 0 42 41" fill="none" xmlns="http://www.w3.org/2000/svg">
<g id="mic">
<path id="mic-emoji" d="M21.0446 23.5837C19.6246 23.5837 18.4176 23.0976 17.4236 22.1254C16.4296 21.1532 15.9327 19.9726 15.9327 18.5837V8.58374C15.9327 7.19485 16.4296 6.0143 17.4236 5.04207C18.4176 4.06985 19.6246 3.58374 21.0446 3.58374C22.4646 3.58374 23.6716 4.06985 24.6656 5.04207C25.6596 6.0143 26.1566 7.19485 26.1566 8.58374V18.5837C26.1566 19.9726 25.6596 21.1532 24.6656 22.1254C23.6716 23.0976 22.4646 23.5837 21.0446 23.5837ZM19.3406 35.2504V30.1254C16.387 29.7365 13.9447 28.4449 12.0135 26.2504C10.0823 24.056 9.1167 21.5004 9.1167 18.5837H12.5247C12.5247 20.8893 13.3554 22.8546 15.0168 24.4796C16.6781 26.1046 18.6874 26.9171 21.0446 26.9171C23.4018 26.9171 25.4111 26.1046 27.0725 24.4796C28.7339 22.8546 29.5646 20.8893 29.5646 18.5837H32.9725C32.9725 21.5004 32.0069 24.056 30.0758 26.2504C28.1446 28.4449 25.7022 29.7365 22.7486 30.1254V35.2504H19.3406Z" fill="#1D1B20"/>
</g>
</svg>
