<svg width="41" height="48" viewBox="0 0 41 48" fill="none" xmlns="http://www.w3.org/2000/svg">
<g id="point-down-emoji">
<path id="Vector" d="M27.8861 44.4333C27.8861 41.7888 27.5971 23.738 27.5971 23.738C27.5971 22.3005 27.558 22.0349 28.0854 22.4333C28.6127 22.8318 29.1322 24.3474 32.8744 25.3552C35.6752 26.1091 39.1908 24.9607 40.0971 23.2498C40.4994 22.4919 40.5697 20.9255 39.2611 20.3435C38.0072 19.7849 35.4838 19.7263 33.3744 18.1287C30.7924 16.1716 30.6947 14.5466 29.0385 11.5232C27.7143 9.10913 24.476 7.24585 23.7807 5.90991C23.2768 4.94116 23.3002 3.70288 23.351 2.45679C23.3705 1.98022 23.058 1.55444 22.5932 1.43726C21.4838 1.15991 19.1635 0.738037 15.2885 0.738037C11.4604 0.738037 9.15177 1.14819 8.02677 1.42554C7.5463 1.54272 7.22208 1.99194 7.26896 2.48413C7.39396 3.79663 7.56583 5.19897 7.18302 6.19507C6.65567 7.56616 4.91349 9.46851 3.49161 11.8669C0.167392 17.4802 0.538487 23.3826 0.819737 26.7654C1.03849 29.3826 2.66349 32.6716 4.81583 33.1599C5.91739 33.4099 6.69083 33.1287 7.49552 32.4607C7.68302 32.3044 7.96817 32.4412 8.04239 32.6716C8.36661 33.6716 9.0463 35.2107 11.0932 35.3474C12.765 35.4607 13.4721 34.4802 14.0619 33.949C14.2377 33.7888 14.4252 33.9216 14.4994 34.1482C14.8236 35.1052 16.0229 36.7654 17.8471 36.7068C19.9604 36.6404 20.7494 34.156 21.1283 33.8513C21.5072 33.5505 21.6791 35.0623 21.6947 35.2888C21.6947 35.2888 22.1557 41.1404 22.5697 43.6599C22.9604 46.0466 23.5932 48.2732 25.9096 47.8669C26.8979 47.6951 27.8861 47.0779 27.8861 44.4333Z" fill="#FFDD67"/>
<path id="Vector_2" d="M20.3747 30.156C20.3747 30.156 19.9919 31.2342 18.1012 31.324C16.2809 31.4099 15.6247 29.9412 14.7028 29.781C13.4489 29.5623 13.3005 30.4568 11.5583 30.3631C9.88639 30.2732 9.55827 29.1443 8.37858 28.9842C7.62468 28.8787 6.96061 29.6912 5.14421 29.5467C4.3903 29.4881 2.29264 28.7771 1.66764 27.3787C1.43717 26.8592 0.632487 26.3084 1.13249 28.449C1.5153 30.0857 2.80046 32.6638 4.7653 33.1482C4.78483 33.1521 4.80046 33.156 4.81999 33.1599C5.92155 33.4099 6.69499 33.1287 7.49968 32.4607C7.68718 32.3045 7.97233 32.4412 8.04655 32.6717C8.37077 33.6717 9.05046 35.2107 11.0973 35.3474C12.7692 35.4607 13.4762 34.4803 14.0661 33.949C14.2419 33.7888 14.4294 33.9217 14.5036 34.1482C14.8278 35.1053 16.027 36.7654 17.8512 36.7068C19.9645 36.6404 20.7614 35.031 21.1325 33.8553C21.1637 33.7732 20.8083 30.6638 20.3747 30.156Z" fill="#FFB300"/>
<path id="Vector_3" d="M28.3662 22.7419C28.3662 22.7419 26.6592 20.2693 26.6592 21.8318C26.6592 22.7068 27.374 43.4177 27.1592 45.2576C26.8857 47.5896 25.1592 47.9099 25.1592 47.9099C25.1592 47.9099 27.8467 48.3396 28.3779 45.0583C28.7725 42.613 28.2295 25.0583 28.3662 22.7419Z" fill="#EDA600"/>
<path id="Vector_4" d="M13.4756 30.4178C13.4053 29.4763 13.6475 29.0818 14.1748 28.9842C14.7021 28.8865 14.9131 29.4568 14.9209 30.5271C14.9404 33.5193 13.9404 34.8826 12.0029 35.2615C12.0029 35.2576 13.7607 34.2732 13.4756 30.4178Z" fill="#EDA600"/>
<path id="Vector_5" d="M6.78418 29.4997C6.71387 28.5583 7.07325 28.1716 7.60059 28.0701C8.12793 27.9685 8.43653 28.7537 8.4209 29.824C8.36622 33.0779 6.65918 33.3865 4.96778 33.238C4.96387 33.2458 7.06934 33.3591 6.78418 29.4997Z" fill="#EDA600"/>
<path id="Vector_6" d="M19.874 30.9841C19.8428 30.1326 20.1592 29.6482 20.7725 29.5818C21.3857 29.5154 21.5459 30.1755 21.5889 30.8083C21.8232 34.2966 20.3779 36.5193 18.2412 36.6716C18.2412 36.6716 20.0459 35.4216 19.874 30.9841Z" fill="#EDA600"/>
<path id="Vector_7" d="M23.7763 5.90991C23.2724 4.94116 23.2959 3.70288 23.3467 2.45679C23.3623 2.12085 23.206 1.81226 22.956 1.61694C22.956 1.61694 21.8623 4.32007 22.7412 6.44897C23.1748 7.50757 24.0263 8.21851 24.9443 9.14038C26.1709 10.3787 27.6162 10.531 29.0927 14.2693C29.8427 16.1716 30.6123 17.4255 32.167 18.8162C34.0146 20.4724 36.6865 20.8787 37.8076 20.8044C38.6513 20.7498 39.8427 20.6013 39.2607 20.3435C38.0068 19.7849 35.4834 19.7263 33.374 18.1287C30.792 16.1716 30.6982 14.5466 29.0381 11.5193C27.7138 9.10522 24.4756 7.24585 23.7763 5.90991Z" fill="#EDA600"/>
</g>
</svg>
